# Blender v2.58 (sub 0) OBJ File: 'cube.blend'
# www.blender.org
mtllib cube.mtl
v 1.000000 -1.000000 -1.000000
v 1.000000 -1.000000 1.000000
v -1.000000 -1.000000 1.000000
v -1.000000 -1.000000 -1.000000
v 1.000000 1.000000 -0.999999
v 0.999999 1.000000 1.000001
v -1.000000 1.000000 1.000000
v -1.000000 1.000000 -1.000000
vt 0.332314 0.000000
vt 0.333333 0.332314
vt 0.001019 0.333333
vt 0.000000 0.001019
vt 1.000000 0.334353
vt 0.998981 0.666667
vt 0.666667 0.665647
vt 0.667686 0.333333
vt 0.334353 0.000000
vt 0.666667 0.001020
vt 0.665647 0.333333
vt 0.998981 0.333333
vt 1.000000 0.001020
vt 0.667686 0.000000
vt 0.666667 0.332314
vt 0.332314 0.666667
vt 0.333333 0.334353
vt 0.001020 0.333333
vt 0.000000 0.665647
vt 0.334353 0.333333
vt 0.666667 0.334353
vt 0.665647 0.666667
vt 0.333333 0.665647
vn 0.577349 -0.577349 -0.577349
vn 0.577349 -0.577349 0.577349
vn -0.577349 -0.577349 0.577349
vn -0.577349 -0.577349 -0.577349
vn 0.577349 0.577349 -0.577349
vn -0.577349 0.577349 -0.577349
vn -0.577349 0.577349 0.577349
vn 0.577349 0.577349 0.577349
usemtl None_wall.png
s 1
f 1/1/1 2/2/2 3/3/3
f 1/1/1 3/3/3 4/4/4
f 5/5/5 8/6/6 7/7/7
f 5/5/5 7/7/7 6/8/8
f 1/9/1 5/10/5 6/11/8
f 1/9/1 6/11/8 2/2/2
f 2/12/2 6/13/8 7/14/7
f 2/12/2 7/14/7 3/15/3
f 3/16/3 7/17/7 8/18/6
f 3/16/3 8/18/6 4/19/4
f 5/20/5 1/21/1 4/22/4
f 5/20/5 4/22/4 8/23/6
