# Blender v2.58 (sub 0) OBJ File: 'cube.blend'
# www.blender.org
mtllib cube.mtl
v 1.000000 -1.000000 -1.000000
v 1.000000 -1.000000 1.000000
v -1.000000 -1.000000 1.000000
v -1.000000 -1.000000 -1.000000
v 1.000000 1.000000 -0.999999
v 0.999999 1.000000 1.000001
v -1.000000 1.000000 1.000000
v -1.000000 1.000000 -1.000000
vt 0.000000 0.000000
vt 1.000000 0.000000
vt 1.000000 1.000000
vt 0.000000 1.000000
vn 0.577349 -0.577349 -0.577349
vn 0.577349 -0.577349 0.577349
vn -0.577349 -0.577349 0.577349
vn -0.577349 -0.577349 -0.577349
vn 0.577349 0.577349 -0.577349
vn -0.577349 0.577349 -0.577349
vn -0.577349 0.577349 0.577349
vn 0.577349 0.577349 0.577349
usemtl None_wall.png
s 1
f 1/1/1 2/2/2 3/3/3
f 1/1/1 3/3/3 4/4/4
f 5/1/5 8/2/6 7/3/7
f 5/1/5 7/3/7 6/4/8
f 1/1/1 5/2/5 6/3/8
f 1/1/1 6/3/8 2/4/2
f 2/1/2 6/2/8 7/3/7
f 2/1/2 7/3/7 3/4/3
f 3/1/3 7/2/7 8/3/6
f 3/1/3 8/3/6 4/4/4
f 5/1/5 1/2/1 4/3/4
f 5/1/5 4/3/4 8/4/6
v 1.000000 -1.000000 -1.000000
v 1.000000 -1.000000 1.000000
v -1.000000 -1.000000 1.000000
v -1.000000 -1.000000 -1.000000
v 1.000000 1.000000 -0.999999
v 0.999999 1.000000 1.000001
v -1.000000 1.000000 1.000000
v -1.000000 1.000000 -1.000000
vn 0.000000 -1.000000 0.000000
vn 0.000000 1.000000 0.000000
vn 1.000000 0.000000 0.000000
vn -0.000000 -0.000000 1.000000
vn -1.000000 -0.000000 -0.000000
vn 0.000000 0.000000 -1.000000
usemtl Material
s off
f 9//9 10//9 11//9
f 9//9 11//9 12//9
f 13//10 16//10 15//10
f 13//10 15//10 14//10
f 9//11 13//11 14//11
f 9//11 14//11 10//11
f 10//12 14//12 15//12
f 10//12 15//12 11//12
f 11//13 15//13 16//13
f 11//13 16//13 12//13
f 13//14 9//14 12//14
f 13//14 12//14 16//14
