# Blender v2.60 (sub 0) OBJ File: 'figure.blend'
# www.blender.org
mtllib figure.mtl
o Cube
v 1.000000 -1.000000 -1.000000
v 1.000000 -1.000000 1.000000
v -1.000000 -1.000000 1.000000
v -1.000000 -1.000000 -1.000000
v 1.000000 1.000000 -0.999999
v 0.999999 1.000000 1.000001
v -1.000000 1.000000 1.000000
v -1.000000 1.000000 -1.000000
v -0.500000 2.000000 -0.500000
v -0.500000 2.000000 0.500000
v 0.500000 2.000000 0.500000
v 0.500000 2.000000 -0.500000
v 2.000000 0.600000 0.600001
v 2.000000 0.600000 -0.599999
v 2.000000 -0.600000 0.600000
v 2.000000 -0.600000 -0.600000
v -2.000000 0.500000 -0.500000
v -2.000000 0.500000 0.499999
v -2.000000 -0.500000 -0.500001
v -2.000000 -0.500000 0.500000
v -0.700000 -2.000000 -0.700000
v -0.700000 -2.000000 0.700000
v 0.700000 -2.000000 0.700000
v 0.700000 -2.000000 -0.700000
v -0.700000 0.700000 -2.000000
v 0.700001 0.700000 -2.000000
v -0.699999 -0.700000 -2.000000
v 0.700000 -0.700000 -2.000000
v -0.600001 0.600000 2.000000
v 0.599999 0.600000 2.000000
v -0.600000 -0.600000 2.000000
v 0.600000 -0.600000 2.000000
vn -0.606067 0.606067 -0.515061
vn -0.590960 0.590960 0.549089
vn -0.424787 0.799432 0.424787
vn -0.424787 0.799432 -0.424787
vn 0.563158 0.604694 0.563158
vn 0.424787 0.799432 0.424787
vn 0.578784 0.620014 -0.529649
vn 0.424787 0.799432 -0.424787
vn 0.764672 0.455641 0.455641
vn 0.764672 0.455641 -0.455641
vn 0.593158 -0.544328 0.593158
vn 0.764672 -0.455641 0.455641
vn 0.609241 -0.560686 -0.560686
vn 0.764672 -0.455641 -0.455641
vn -0.799432 0.424787 -0.424787
vn -0.799432 0.424787 0.424787
vn -0.635639 -0.545854 -0.545854
vn -0.799432 -0.424787 -0.424787
vn -0.620014 -0.529649 0.578784
vn -0.799432 -0.424787 0.424787
vn -0.487442 -0.724418 -0.487442
vn -0.487442 -0.724418 0.487442
vn 0.487442 -0.724418 0.487442
vn 0.487442 -0.724418 -0.487442
vn 0.487442 0.487442 -0.724418
vn -0.487442 0.487442 -0.724418
vn -0.487442 -0.487442 -0.724418
vn 0.487442 -0.487442 -0.724418
vn -0.455641 0.455641 0.764672
vn 0.455641 0.455641 0.764672
vn -0.455641 -0.455641 0.764672
vn 0.455641 -0.455641 0.764672
usemtl Material
s 1
f 8//1 7//2 10//3 9//4
f 7//2 6//5 11//6 10//3
f 5//7 8//1 9//4 12//8
f 6//5 5//7 12//8 11//6
f 12//8 9//4 10//3 11//6
f 5//7 6//5 13//9 14//10
f 6//5 2//11 15//12 13//9
f 1//13 5//7 14//10 16//14
f 2//11 1//13 16//14 15//12
f 16//14 14//10 13//9 15//12
f 7//2 8//1 17//15 18//16
f 8//1 4//17 19//18 17//15
f 3//19 7//2 18//16 20//20
f 4//17 3//19 20//20 19//18
f 20//20 18//16 17//15 19//18
f 3//19 4//17 21//21 22//22
f 2//11 3//19 22//22 23//23
f 4//17 1//13 24//24 21//21
f 1//13 2//11 23//23 24//24
f 24//24 23//23 22//22 21//21
f 8//1 5//7 26//25 25//26
f 4//17 8//1 25//26 27//27
f 5//7 1//13 28//28 26//25
f 1//13 4//17 27//27 28//28
f 26//25 28//28 27//27 25//26
f 6//5 7//2 29//29 30//30
f 7//2 3//19 31//31 29//29
f 2//11 6//5 30//30 32//32
f 3//19 2//11 32//32 31//31
f 32//32 30//30 29//29 31//31
