# Blender v2.58 (sub 0) OBJ File: ''
# www.blender.org
v 0.000000 -1.000000 -0.000000
v -0.038534 1.614430 0.008828
v 1.000000 0.000000 0.000000
v -0.000000 0.000000 1.000000
v -1.000000 0.000000 -0.000000
v 0.000000 0.000000 -1.000000
v 0.750000 -0.750000 0.000000
v 0.000000 -0.750000 -0.750000
v 0.750000 0.000000 -0.750000
v -0.000000 -0.750000 0.750000
v 0.750000 0.000000 0.750000
v -0.750000 -0.750000 -0.000000
v -0.750000 0.000000 0.750000
v -0.750000 0.000000 -0.750000
v 1.051658 1.252783 -0.185709
v -0.072120 1.759440 -1.146592
v -0.000000 0.750000 0.750000
v -1.156766 1.311784 -0.114110
v 0.555556 -0.555556 -0.555555
v 0.555555 -0.555556 0.555556
v -0.555556 -0.555556 0.555555
v -0.555555 -0.555556 -0.555556
v 0.739983 1.355545 -1.038173
v 0.555555 0.555556 0.555556
v -0.555556 0.555556 0.555555
v -0.895886 1.399249 -0.985137
vn 0.000000 -1.000000 0.000000
vn 0.000000 -0.707083 -0.707083
vn 0.577349 -0.577349 -0.577349
vn 0.707083 -0.707083 0.000000
vn 0.577349 -0.577349 0.577349
vn 0.000000 -0.707083 0.707083
vn -0.577349 -0.577349 0.577349
vn -0.707083 -0.707083 0.000000
vn -0.577349 -0.577349 -0.577349
vn 0.028260 0.881314 0.471633
vn 0.842372 0.504288 0.189886
vn 0.644215 0.422834 -0.637287
vn 0.003418 0.747093 -0.664693
vn -0.674032 0.428419 -0.601703
vn -0.835627 0.490860 0.246467
vn -0.533616 0.348460 0.770562
vn 0.020325 0.500717 0.865352
vn 0.562670 0.380108 0.734062
vn 0.985626 -0.153203 0.070803
vn 0.676809 -0.240272 -0.695822
vn 0.680349 -0.049440 0.731162
vn 0.000000 0.000000 1.000000
vn -0.669790 -0.067202 0.739464
vn -0.977599 -0.192419 0.085116
vn -0.671133 -0.261483 -0.693655
vn -0.006256 -0.247261 -0.968902
usemtl Material
s 1
f 1//1 8//2 19//3
f 1//1 19//3 7//4
f 1//1 7//4 20//5
f 1//1 20//5 10//6
f 1//1 10//6 21//7
f 1//1 21//7 12//8
f 1//1 12//8 22//9
f 1//1 22//9 8//2
f 2//10 15//11 23//12
f 2//10 23//12 16//13
f 2//10 16//13 26//14
f 2//10 26//14 18//15
f 2//10 18//15 25//16
f 2//10 25//16 17//17
f 2//10 17//17 24//18
f 2//10 24//18 15//11
f 3//19 7//4 19//3
f 3//19 19//3 9//20
f 3//19 9//20 23//12
f 3//19 23//12 15//11
f 3//19 15//11 24//18
f 3//19 24//18 11//21
f 3//19 11//21 20//5
f 3//19 20//5 7//4
f 4//22 10//6 20//5
f 4//22 20//5 11//21
f 4//22 11//21 24//18
f 4//22 24//18 17//17
f 4//22 17//17 25//16
f 4//22 25//16 13//23
f 4//22 13//23 21//7
f 4//22 21//7 10//6
f 5//24 12//8 21//7
f 5//24 21//7 13//23
f 5//24 13//23 25//16
f 5//24 25//16 18//15
f 5//24 18//15 26//14
f 5//24 26//14 14//25
f 5//24 14//25 22//9
f 5//24 22//9 12//8
f 6//26 16//13 23//12
f 6//26 23//12 9//20
f 6//26 9//20 19//3
f 6//26 19//3 8//2
f 6//26 8//2 22//9
f 6//26 22//9 14//25
f 6//26 14//25 26//14
f 6//26 26//14 16//13
